PathFileType	4	(X/Y/Z)	46_2_11_p0_0-518.trc
DataRate	CameraRate	NumFrames	NumMarkers	Units	OrigDataRate	OrigDataStartFrame	OrigNumFrames
59.0	59.0	6	27	m	59.0	129	519
Frame#	Time	RHip			RKnee			RAnkle			RBigToe			RSmallToe			RHeel			LHip			LKnee			LAnkle			LBigToe			LSmallToe			LHeel			Neck			Head			Nose			RShoulder			RElbow			RWrist			RThumb			RIndex			RPinky			LShoulder			LElbow			LWrist			LThumb			LIndex			LPinky			
		X1	Y1	Z1	X2	Y2	Z2	X3	Y3	Z3	X4	Y4	Z4	X5	Y5	Z5	X6	Y6	Z6	X7	Y7	Z7	X8	Y8	Z8	X9	Y9	Z9	X10	Y10	Z10	X11	Y11	Z11	X12	Y12	Z12	X13	Y13	Z13	X14	Y14	Z14	X15	Y15	Z15	X16	Y16	Z16	X17	Y17	Z17	X18	Y18	Z18	X19	Y19	Z19	X20	Y20	Z20	X21	Y21	Z21	X22	Y22	Z22	X23	Y23	Z23	X24	Y24	Z24	X25	Y25	Z25	X26	Y26	Z26	X27	Y27	Z27	
129	2.1864406779661016	0.3496090430308816	0.36721008345928385	0.636587807958688	0.34178900280864183	0.4192895641482825	1.0443059361481863	0.2997941472981646	0.6267195640021208	1.4720035886874536	0.37785894440210227	0.4416968266831574	1.5284632719708162	0.40779126884775907	0.538311078189873	1.5224752996198325	0.28106942356827824	0.6502675268414588	1.507023172092531	0.18023297229940446	0.32239567453539447	0.6334183461000251	0.18937059767271747	0.25172578534748763	1.0237112800755648	0.1261897375244475	0.35369880137353166	1.4830273570614914	0.20931018082642516	0.17311533954176647	1.5042694575015092	0.13879226327492714	0.16916400156738998	1.5093567215531951	0.10476562481403777	0.38246806252654486	1.5172611452393576	0.2426257801994177	0.27416629629316935	0.10074304134556322	0.23172501295550496	0.17541984225573512	-0.13069068083898538	0.2406422252836213	0.15168828601378984	0.005451730854300256	0.38006708519082244	0.2587929651877017	0.1432885178585547	0.5228314063558898	0.1129405627566353	0.1981417996478517	0.5100994862612288	-0.1997425147743924	0.09339384165176472	0.508976038268517	-0.30710041764554147	0.03990615249898055	0.5055223234767597	-0.32291777971894525	0.05209114066611853	0.5102597279834958	-0.3222754246471366	0.07995449216166807	0.09859771242311115	0.3027348123113982	0.19274416429956726	0.06446774592315936	0.26216716831527204	0.41512226060427504	0.22552895149390045	0.14869561871021567	0.4341874081320545	0.31345658189129155	0.07985840618193886	0.39491059633032327	0.35275477797391586	0.13603286229281752	0.4391242855442211	0.3134073430130781	0.14233410204445562	0.4882671535812415
130	2.2033898305084745	0.34546047162141497	0.3660401135864592	0.6325791092187861	0.3407333582387287	0.40438172978371295	1.0392224298916417	0.30028038119778255	0.6230934555854408	1.471913491755593	0.378911597180065	0.4419573303596523	1.5228501430723171	0.40878204641532523	0.5375942661462041	1.5179320443774964	0.2887732746854655	0.6445739572199108	1.5126398064605031	0.17317657172097398	0.32262725951405613	0.630078798824204	0.1897661075117925	0.25286768624655687	1.0159155562228988	0.1263179028137869	0.35356962667583114	1.4828491967282986	0.20939129912732884	0.17287217693133108	1.5040196895691156	0.1389394983286186	0.1689128582260085	1.5089928811921975	0.11534402071344745	0.37178075115199766	1.5104368133131083	0.23750669575053843	0.2859313948751131	0.10257939830710136	0.2315228305042417	0.17473602909017	-0.13044003096405443	0.24052154685887212	0.15183695464857355	0.005532786881460014	0.37642102857961607	0.2579775756297912	0.14649217574182946	0.5079288828702947	0.11061904921358148	0.19479455732497727	0.4492559520695326	-0.16080003744772425	0.09079474358324739	0.4261247122204634	-0.29977483488438855	0.04600371226992542	0.4233090740307359	-0.3281903721876601	0.029704173363688684	0.43954029873204403	-0.32127750221082374	0.060551317990225874	0.10230537932997064	0.30606522764226857	0.1930916640068898	0.0584989153546322	0.2866961787619024	0.42356993908209095	0.22531756501135194	0.14918132951169827	0.4305337452088953	0.31506187858675333	0.088260898524154	0.4088980237461928	0.3445218572429073	0.13584315370423308	0.44073929333849104	0.3033426988012815	0.1316284771575529	0.48537123910112356
131	2.2203389830508473	0.3519289084869533	0.3556441757394274	0.638101485111939	0.34066586597837334	0.4060068082648958	1.0488147425226961	0.3150598150877585	0.6230193864239425	1.4707991492445647	0.37599712072565483	0.39685071247951076	1.506443568463269	0.4128011803791897	0.5039935254852382	1.5102668205911574	0.29936533828815287	0.6778727220932633	1.5351382832606135	0.18163583295430735	0.3023737336812874	0.6366077737778193	0.18986584079732888	0.25313673526492847	1.028736946276723	0.1265001647129733	0.35376897444053707	1.4831743132377773	0.211193425512446	0.1572483147950159	1.4945338135824324	0.1335308415666498	0.16731749686234237	1.5124044007583046	0.12009784105284294	0.3859168632705554	1.5139934161429425	0.23785471275886572	0.28686741250959025	0.10999537608082184	0.22625454176080634	0.18536877074483515	-0.1265284212605227	0.23010811654157998	0.14973825983495218	0.005731336637228871	0.383932415125446	0.2623152765710251	0.14687827615592466	0.5090067837205656	0.08889951298715168	0.19133492940233945	0.4199336811425959	-0.1830847387179888	0.07975316495607762	0.36398260163257695	-0.2724367944995935	0.033800057544906836	0.3660924996099823	-0.28842797490721334	0.022778405793328932	0.378314512400568	-0.29675874640583877	0.05241692289730538	0.0987173157902088	0.3025785075593995	0.1934169577600671	0.05246698432361562	0.29915492184765924	0.4243623374374487	0.21866893891601416	0.16005834955526915	0.4363872357652558	0.3098221123437507	0.09922070850541376	0.40804675526588813	0.3394141278403925	0.14558551205211137	0.44625473168821717	0.30159816741066237	0.12093024178763653	0.48714598699077577
132	2.23728813559322	0.35210910880205537	0.3580461713794355	0.6396572899930592	0.34243778321675633	0.4096851225740319	1.0514296295113454	0.31552395138945166	0.6304755481354294	1.4728687901797954	0.36691507098529214	0.390564610268522	1.5114900439023229	0.4082127360765557	0.48507870160106853	1.50970307373407	0.2995283644324963	0.6903920938658081	1.5351683073404487	0.1759467314789129	0.31584310094226237	0.644658184888737	0.18583698644584676	0.26830702443346305	1.0398295816502743	0.1265931174205814	0.353279299555254	1.4833352874950523	0.20516194018846887	0.16985189859041605	1.5029801620086642	0.1343979554615196	0.16693939971793145	1.5086615604956757	0.11978559321224751	0.38703147818548206	1.5252272913435019	0.2373785443498638	0.2867247958951456	0.10976187557792771	0.2208847669109941	0.1734247069519416	-0.12379557197020978	0.22638089171909073	0.14753649190985865	0.005847070833367925	0.37636433129256003	0.2582402931104236	0.14647080091729195	0.49965120821063763	0.05576040109380195	0.17792955283393902	0.3780340042895909	-0.16732361399237766	0.06792354135543448	0.28303001955558926	-0.18381779601488582	0.042921911987892254	0.2918579051002488	-0.2606741124668404	0.029199939023359094	0.3284431090452445	-0.2715657637155757	0.04703687528076053	0.09857837727291392	0.30310207626155034	0.19335723132165922	0.051967283564979046	0.3018483191003769	0.43004742891166553	0.21095186814457395	0.15978164961041905	0.43327060143803375	0.3090237241973922	0.1077573637580674	0.420968979269794	0.33270332316300016	0.14320334029972123	0.4467523264266204	0.294577988965901	0.12070973223615994	0.487968704278726
133	2.2542372881355934	0.34657799020822433	0.3708556211474828	0.6432630941594741	0.34218149215946936	0.40672672276249844	1.049571502837178	0.3151663215958364	0.6273556377836486	1.4782929801636484	0.3728192105311764	0.38467966933855974	1.5095599850371362	0.41357594373118284	0.5021737286057233	1.530733827640539	0.312160700130989	0.6637499874688096	1.5271769999541385	0.17580890200796465	0.31639055855228704	0.6445460861225948	0.18494457001538106	0.26828585527684123	1.044042360946432	0.12965497579860788	0.3547072551236381	1.492633010179917	0.20398655208923128	0.1705109461675847	1.5073343404528456	0.13220592989142446	0.16803326657247458	1.5169188340778077	0.1182149822371938	0.3840509383889775	1.528660253805228	0.23720408850749125	0.2867647895840701	0.11000833650029794	0.21217332329798874	0.18243557636241214	-0.12320824262165736	0.22641465471222563	0.14883779693052035	0.009249703423780687	0.3729356122671379	0.25707559196327007	0.14987935123121493	0.4809926851936036	0.05152945156743231	0.1746713478457384	0.3253734424510872	-0.13876986075872555	0.06625226863203837	0.21657860609412238	-0.1675845261645101	0.04506192587641079	0.22578405718859978	-0.20418409446712618	0.025484218076593155	0.25462362420274126	-0.23531136490881924	0.03833452405565252	0.1023319523479091	0.30617684042887605	0.19370239991972496	0.05845055628987393	0.2921261382881359	0.43067864390482613	0.2108632735973714	0.15895719678358525	0.4332136821057979	0.3033284368198304	0.08618409777737387	0.4130984688418355	0.32668451172522855	0.12901954467801366	0.44495057648236214	0.2854887850638232	0.13062153613125327	0.4912149538917838
134	2.2711864406779663	0.3462525940372309	0.3700077917941808	0.6507064787522029	0.34389826076739183	0.4125420509903356	1.061865415004991	0.3242036341712067	0.6462041660362576	1.4869739006599711	0.36330240781940654	0.38657689556729297	1.5180114353201535	0.4101983521096904	0.48093385888912954	1.527922253851467	0.31288159706756885	0.6675659419135818	1.529331772343218	0.1745552968195634	0.30279640056730267	0.6453850018117107	0.19162896154268078	0.25635093799920855	1.047260483726745	0.1297013290774109	0.35819820189347	1.495048936153195	0.20381835835775652	0.1707710520751079	1.507523519872588	0.13199552307232107	0.16828223731487624	1.5171227011843451	0.11853712797802678	0.38747941639687644	1.5313225876917975	0.23035255601524557	0.28853273884527275	0.11351840643489731	0.2085047233686973	0.18093244725578692	-0.12081098613162126	0.2223954786949108	0.14699782690365115	0.009057934487628443	0.36805629940055995	0.26881622531644966	0.15135809344559928	0.4609090944593528	0.030838857226790375	0.16648927975752031	0.28123695942831706	-0.13878374961862303	0.060844853558166795	0.17844594499969302	-0.18121471961883306	0.05352792476984546	0.17721130604922616	-0.18988721087119234	0.031014507039925948	0.2017171987379144	-0.194182665832788	0.0477893587898275	0.09865295335100376	0.3019060853339414	0.20080632531119097	0.06447223582151651	0.278979688182689	0.4282200821448656	0.20886597053636677	0.14731794910801016	0.43461477905652	0.3034324034911018	0.09557860760177392	0.4190354258494042	0.3265601922700439	0.12757114614058784	0.44777238913813205	0.2840400777841387	0.11762578973844968	0.492787370780979
